<svg width="124" height="35" viewBox="0 0 124 35" fill="none" xmlns="http://www.w3.org/2000/svg">
<path d="M4.5477 34.2927V33.8987C4.5477 27.0987 4.54981 20.3017 4.55403 13.5077C4.55403 13.2647 4.47813 13.1987 4.23777 13.1997C2.85681 13.2077 1.47373 13.1997 0 13.1997C0.495461 12.8187 0.926618 12.4817 1.36515 12.1487C2.37611 11.3797 3.39233 10.6167 4.3959 9.83766C4.48443 9.7477 4.53279 9.62871 4.53083 9.50566C4.53083 6.90566 4.52697 4.30566 4.51924 1.70566C4.51924 1.43666 4.57616 1.32466 4.89558 1.32566C7.00392 1.33966 9.11227 1.33966 11.2206 1.32566C11.4894 1.32566 11.579 1.38466 11.5738 1.65566C11.5548 2.51066 11.5664 3.36766 11.5664 4.28866C11.6579 4.25392 11.7458 4.21106 11.8289 4.16066C13.5858 2.82132 15.3428 1.48032 17.0997 0.137656C17.2948 -0.0123444 17.435 -0.0693444 17.6732 0.119656C18.622 0.877656 19.6066 1.60566 20.5764 2.34366C21.7578 3.24232 22.9395 4.14232 24.1216 5.04366C25.5173 6.11032 26.9116 7.17699 28.3045 8.24366C29.5885 9.22566 30.8732 10.2063 32.1586 11.1857C33.0167 11.8377 33.879 12.4857 34.8225 13.1977H12.045C11.5179 13.1977 11.5717 13.1497 11.5717 13.6397C11.5717 20.387 11.5717 27.1343 11.5717 33.8817V34.2817L4.5477 34.2927Z" fill="#0B5AA5"/>
<path d="M13.1086 26.8387V25.3067C13.1086 24.2007 13.1086 23.0947 13.1086 21.9877C13.1086 21.7957 13.0897 21.7037 13.3964 21.7037C16.4799 21.7137 19.5633 21.6867 22.6468 21.6697H22.709C23.2719 21.6927 23.2719 21.6927 23.2719 21.1347V14.5677H30.2558V34.2957H23.2698V33.9417C23.2698 31.6897 23.2635 29.4367 23.2761 27.1847C23.2761 26.9057 23.1928 26.8317 22.9072 26.8337C19.7685 26.8423 16.6306 26.8443 13.4934 26.8397L13.1086 26.8387Z" fill="#0B5AA5"/>
<path d="M116.511 25.2337C116.553 26.4584 116.303 27.6762 115.78 28.7967C115.154 30.1354 114.056 31.2255 112.675 31.8797C111.82 32.2741 110.902 32.5306 109.958 32.6387C109.034 32.767 108.098 32.7841 107.17 32.6897C105.309 32.5823 103.556 31.8249 102.248 30.5637C101.332 29.6458 100.715 28.4964 100.47 27.2537C100.076 25.5366 100.181 23.7501 100.776 22.0857C101.138 21.0774 101.761 20.1714 102.587 19.4503C103.414 18.7292 104.418 18.216 105.507 17.9577C106.626 17.6653 107.788 17.5468 108.947 17.6067C110.472 17.6227 111.964 18.0268 113.269 18.7767C114.477 19.5081 115.402 20.5922 115.904 21.8657C116.337 22.9399 116.543 24.0841 116.511 25.2337ZM111.685 25.2337C111.596 24.5547 111.533 23.8737 111.412 23.2007C111.311 22.5571 111.005 21.9583 110.535 21.4837C110.234 21.21 109.874 21.0016 109.48 20.873C109.086 20.7444 108.667 20.6985 108.252 20.7387C107.652 20.7073 107.059 20.8713 106.571 21.2033C106.083 21.5354 105.729 22.0157 105.568 22.5647C105.045 24.0881 104.982 25.7199 105.386 27.2757C105.462 27.8779 105.754 28.4369 106.214 28.8588C106.673 29.2807 107.271 29.5398 107.908 29.5927C108.648 29.743 109.419 29.6127 110.059 29.2297C110.698 28.8467 111.154 28.2415 111.328 27.5437C111.546 26.7903 111.666 26.0146 111.685 25.2337Z" fill="#0B5AA5"/>
<path d="M49.1139 25.1836C49.1828 26.6179 48.8395 28.043 48.1209 29.3066C47.4996 30.3734 46.5645 31.2456 45.4296 31.8166C44.6277 32.2257 43.7558 32.4966 42.8542 32.6166C41.9438 32.7573 41.0187 32.7909 40.0997 32.7166C39.0589 32.6464 38.0368 32.4171 37.0731 32.0376C35.6148 31.4477 34.431 30.3766 33.7409 29.0226C33.2706 28.0942 32.9929 27.0886 32.9228 26.0606C32.7404 24.5261 32.9819 22.9728 33.6239 21.5536C34.1943 20.3254 35.1684 19.3053 36.4006 18.6456C37.496 18.0696 38.7119 17.7299 39.9616 17.6506C41.5092 17.4932 43.0745 17.6639 44.544 18.1506C45.8755 18.6001 47.0183 19.4454 47.8025 20.5606C48.7464 21.9303 49.2057 23.5496 49.1139 25.1836ZM37.7604 25.1946C37.7144 26.0766 37.845 26.9588 38.1452 27.7946C38.3594 28.4398 38.8302 28.9804 39.4577 29.3016C40.124 29.6075 40.8744 29.7082 41.604 29.5896C42.1028 29.5518 42.5771 29.3684 42.9617 29.0646C43.6531 28.4765 44.0774 27.6572 44.1456 26.7786C44.2204 25.9786 44.2151 25.1786 44.2162 24.3786C44.2173 23.7027 44.0738 23.0335 43.7945 22.4116C43.6693 22.0763 43.4715 21.7695 43.2136 21.5112C42.9558 21.2528 42.6437 21.0486 42.2976 20.9116C41.7442 20.7427 41.1601 20.6831 40.5814 20.7366C40.1212 20.741 39.6718 20.8688 39.2849 21.1052C38.898 21.3416 38.5895 21.677 38.3951 22.0726C37.8997 23.0428 37.6802 24.1193 37.7604 25.1946Z" fill="#0B5AA5"/>
<path d="M98.9257 25.9346H87.9791C88.0097 26.2449 88.0583 26.5534 88.1246 26.8586C88.2964 27.5192 88.6775 28.1139 89.2166 28.5627C89.7557 29.0115 90.4268 29.2928 91.1395 29.3686C91.8079 29.4948 92.4885 29.5538 93.1699 29.5446C94.6416 29.4971 96.0776 29.1018 97.3476 28.3946C97.609 28.2546 97.8504 28.0786 98.1171 27.9486C98.2711 27.9004 98.4315 27.8728 98.5936 27.8666C98.6052 27.9866 98.6199 28.0666 98.6199 28.1546C98.6199 29.1806 98.6136 30.2076 98.6199 31.2336C98.631 31.3092 98.612 31.3859 98.5665 31.4488C98.5211 31.5116 98.4526 31.5562 98.3743 31.5736C97.1572 32.0429 95.8819 32.3628 94.5793 32.5256C93.3035 32.6811 92.0131 32.6962 90.7337 32.5706C89.1415 32.4663 87.6033 31.9805 86.2629 31.1586C84.9035 30.2965 83.9391 28.9776 83.5642 27.4676C83.252 26.2303 83.2022 24.9464 83.4177 23.6906C83.5981 22.4284 84.1371 21.2366 84.9768 20.2426C85.9344 19.1281 87.2416 18.3322 88.7086 17.9706C90.0183 17.6314 91.3823 17.5219 92.7334 17.6476C93.87 17.7178 94.9767 18.0225 95.9761 18.5406C97.0437 19.1171 97.8691 20.0251 98.3132 21.1116C98.7303 22.0965 98.936 23.1504 98.9183 24.2116C98.9257 24.7726 98.9257 25.3346 98.9257 25.9346ZM88.0034 23.3256C88.1014 23.3336 88.172 23.3436 88.2448 23.3436C90.1339 23.3436 92.024 23.3436 93.9131 23.3496C94.1555 23.3496 94.2641 23.2876 94.2293 23.0496C94.203 22.8736 94.1966 22.6936 94.1629 22.5196C94.1307 22.1232 93.9864 21.7423 93.7452 21.4171C93.504 21.0919 93.1749 20.8344 92.7925 20.6716C92.2377 20.4447 91.6343 20.3451 91.0313 20.3808C90.4283 20.4166 89.8428 20.5868 89.3221 20.8776C88.8847 21.1296 88.5297 21.4919 88.2968 21.9242C88.0639 22.3565 87.9623 22.8417 88.0034 23.3256Z" fill="#0B5AA5"/>
<path d="M50.9018 18.0997H55.5317V18.4667C55.5317 20.6297 55.5211 22.7927 55.538 24.9547C55.536 25.7 55.5782 26.4448 55.6645 27.1857C55.6537 27.4411 55.6997 27.6959 55.7995 27.9334C55.8994 28.1708 56.0509 28.3857 56.2442 28.5639C56.4374 28.7421 56.6681 28.8797 56.9211 28.9677C57.1741 29.0557 57.4439 29.0922 57.7128 29.0747C58.8146 29.155 59.9141 28.8935 60.8458 28.3297C60.922 28.2909 60.9835 28.2303 61.0213 28.1565C61.0592 28.0827 61.0715 27.9995 61.0566 27.9187C61.0566 24.7793 61.0566 21.64 61.0566 18.5007V18.1007H65.7603V18.4237C65.7603 22.919 65.7628 27.414 65.7677 31.9087C65.7677 32.2187 65.6707 32.2907 65.3618 32.2867C64.042 32.2707 62.7264 32.2797 61.4024 32.2797H61.0482V30.7267C60.8647 30.8267 60.7467 30.8947 60.6328 30.9627C60.0098 31.3367 59.3952 31.7217 58.7659 32.0827C58.0791 32.4492 57.311 32.6572 56.5237 32.6897C55.5412 32.7822 54.5498 32.6448 53.6363 32.2897C53.0928 32.0757 52.6034 31.7548 52.2004 31.3481C51.7973 30.9415 51.4898 30.4584 51.2981 29.9307C51.0184 29.2136 50.8781 28.4543 50.8838 27.6897C50.8838 24.5703 50.8838 21.4507 50.8838 18.3307C50.8848 18.2534 50.8908 18.1762 50.9018 18.0997Z" fill="#0B5AA5"/>
<path d="M75.7919 21.3327H68.4928V18.1027H81.8808C81.8871 18.1817 81.8998 18.2677 81.8998 18.3527C81.8998 19.0907 81.9114 19.8267 81.8924 20.5647C81.8842 20.7375 81.8164 20.9029 81.6995 21.0357C79.7984 23.021 77.8907 25.0007 75.9764 26.9747C75.464 27.5047 74.9464 28.0317 74.4415 28.5687C74.3613 28.6843 74.2965 28.8089 74.2486 28.9397H82.002V32.2797H81.671C77.2765 32.2797 72.882 32.282 68.4875 32.2867C68.166 32.2867 68.0817 32.1997 68.0912 31.8997C68.1133 31.1637 68.0912 30.4257 68.107 29.6877C68.1148 29.5149 68.183 29.3495 68.3009 29.2177C70.0846 27.371 71.8767 25.5307 73.6772 23.6967C74.334 23.0237 74.9939 22.3517 75.6475 21.6757C75.7202 21.5912 75.7871 21.5023 75.8478 21.4097L75.7919 21.3327Z" fill="#0B5AA5"/>
<path d="M118.168 25.1786C118.168 23.5846 118.182 21.9916 118.168 20.3966C118.17 19.8402 118.344 19.2966 118.668 18.8328C118.992 18.369 119.452 18.0053 119.991 17.7866C120.45 17.5963 120.956 17.5328 121.451 17.6036C121.946 17.6743 122.41 17.8765 122.789 18.1866C123.165 18.4632 123.466 18.8217 123.665 19.2319C123.863 19.6421 123.955 20.0917 123.932 20.5426C123.939 23.6606 123.939 26.7783 123.932 29.8956C123.959 30.493 123.785 31.083 123.435 31.5805C123.086 32.078 122.578 32.4573 121.987 32.6637C121.536 32.8293 121.046 32.875 120.569 32.7958C120.093 32.7167 119.649 32.5158 119.284 32.2146C118.932 31.9561 118.648 31.6231 118.456 31.2422C118.264 30.8612 118.168 30.4429 118.176 30.0206C118.159 28.4076 118.168 26.7936 118.168 25.1786ZM122.456 28.9356C122.582 28.8338 122.685 28.7084 122.757 28.5671C122.83 28.4259 122.871 28.272 122.878 28.1149C122.885 27.9579 122.858 27.8013 122.798 27.6548C122.738 27.5083 122.646 27.3751 122.53 27.2636C122.859 27.1856 122.925 26.9346 122.765 26.4186C121.973 26.4186 121.175 26.4127 120.377 26.4186C119.649 26.4256 119.717 26.2887 119.7 27.0777C119.7 27.2916 119.778 27.3567 119.99 27.3517C120.427 27.3417 120.863 27.3387 121.297 27.3517C121.472 27.355 121.644 27.3889 121.805 27.4516C121.868 27.4706 121.924 27.5069 121.965 27.5558C122.006 27.6047 122.03 27.6641 122.036 27.7264C122.041 27.7887 122.027 27.8511 121.994 27.9056C121.962 27.9601 121.914 28.0044 121.855 28.0326C121.743 28.0996 121.615 28.1394 121.483 28.1486C121.12 28.1666 120.758 28.1587 120.394 28.1646C119.602 28.1776 119.727 28.0516 119.702 28.8336C119.695 29.0646 119.785 29.1196 120.011 29.1126C120.519 29.0986 121.027 29.1017 121.537 29.1126C121.599 29.1078 121.661 29.1152 121.72 29.1345C121.778 29.1537 121.832 29.1843 121.878 29.2244C121.924 29.2644 121.96 29.3131 121.985 29.3672C122.009 29.4213 122.022 29.4797 122.022 29.5387C121.984 29.8057 121.776 29.8816 121.525 29.8816C121.141 29.8816 120.757 29.8816 120.373 29.8816C119.668 29.8916 119.71 29.7446 119.706 30.5506C119.706 30.7357 119.76 30.8186 119.97 30.8156C120.593 30.8046 121.216 30.8256 121.837 30.8016C122.052 30.7978 122.262 30.7387 122.444 30.6306C122.582 30.5318 122.694 30.4042 122.771 30.2578C122.848 30.1114 122.889 29.9501 122.89 29.7864C122.891 29.6226 122.853 29.4608 122.777 29.3135C122.702 29.1662 122.592 29.0362 122.456 28.9356ZM121.24 25.9146C121.454 25.9407 121.67 25.9216 121.875 25.8586C122.079 25.7957 122.267 25.6906 122.423 25.5507C122.58 25.4109 122.702 25.2399 122.78 25.0501C122.859 24.8602 122.892 24.6562 122.878 24.4526C122.897 24.245 122.87 24.0358 122.796 23.8394C122.722 23.6429 122.605 23.464 122.451 23.3149C122.297 23.1659 122.111 23.0502 121.906 22.9759C121.701 22.9016 121.481 22.8705 121.262 22.8846C120.845 22.8919 120.448 23.0532 120.155 23.3344C119.862 23.6155 119.696 23.9941 119.694 24.3894C119.691 24.7847 119.851 25.1653 120.14 25.4501C120.429 25.7349 120.824 25.9022 121.24 25.9146ZM120.519 22.5306C120.489 21.6356 120.717 21.2606 121.284 21.2506C121.811 21.2427 122.041 21.6286 122.022 22.5006C122.678 22.8226 122.847 22.7366 122.865 22.0416C122.903 21.7597 122.862 21.4731 122.745 21.2113C122.628 20.9495 122.44 20.7219 122.2 20.5516C121.928 20.3652 121.603 20.2617 121.268 20.2549C120.933 20.2481 120.603 20.3383 120.323 20.5136C120.072 20.6693 119.874 20.8923 119.756 21.1543C119.638 21.4163 119.605 21.7056 119.66 21.9856C119.698 22.7436 119.768 22.7836 120.519 22.5306ZM120.251 19.9306C120.651 19.9306 120.883 19.7526 120.883 19.4406C120.888 19.362 120.875 19.2833 120.845 19.2098C120.815 19.1363 120.769 19.0697 120.71 19.0143C120.651 18.9589 120.58 18.916 120.503 18.8885C120.425 18.861 120.342 18.8494 120.259 18.8547C120.178 18.8481 120.097 18.858 120.021 18.8838C119.945 18.9096 119.875 18.9506 119.817 19.0041C119.759 19.0576 119.714 19.1223 119.685 19.1938C119.656 19.2654 119.643 19.342 119.648 19.4186C119.649 19.7496 119.868 19.9356 120.251 19.9356V19.9306Z" fill="#0B5AA5"/>
<path d="M121.252 24.9716C120.751 24.9406 120.409 24.7206 120.409 24.4126C120.409 24.1046 120.783 23.8596 121.278 23.8746C121.453 23.8641 121.628 23.8987 121.783 23.9746C121.929 24.0746 122.1 24.2677 122.09 24.4107C122.042 24.5952 121.92 24.7549 121.751 24.8566C121.594 24.9248 121.424 24.9639 121.252 24.9716Z" fill="#0B5AA5"/>
</svg>
